<?xml version="1.0" encoding="UTF-8" standalone="no"?>
<!-- Created with Inkscape (http://www.inkscape.org/) -->

<svg
   xmlns:dc="http://purl.org/dc/elements/1.1/"
   xmlns:cc="http://creativecommons.org/ns#"
   xmlns:rdf="http://www.w3.org/1999/02/22-rdf-syntax-ns#"
   xmlns:svg="http://www.w3.org/2000/svg"
   xmlns="http://www.w3.org/2000/svg"
   xmlns:sodipodi="http://sodipodi.sourceforge.net/DTD/sodipodi-0.dtd"
   xmlns:inkscape="http://www.inkscape.org/namespaces/inkscape"
   width="56.134079mm"
   height="50.526104mm"
   viewBox="0 0 198.90028 179.0295"
   id="svg3401"
   version="1.1"
   inkscape:version="0.91 r"
   sodipodi:docname="openhardware-logo.svg">
  <defs
     id="defs3403" />
  <sodipodi:namedview
     id="base"
     pagecolor="#ffffff"
     bordercolor="#666666"
     borderopacity="1"
     inkscape:pageopacity="0.0"
     inkscape:pageshadow="2"
     inkscape:zoom="0.98994949"
     inkscape:cx="185.8521"
     inkscape:cy="26.487647"
     inkscape:document-units="px"
     inkscape:current-layer="layer1"
     showgrid="false"
     fit-margin-top="0"
     fit-margin-left="0"
     fit-margin-right="0"
     fit-margin-bottom="0"
     inkscape:window-width="1920"
     inkscape:window-height="1018"
     inkscape:window-x="0"
     inkscape:window-y="25"
     inkscape:window-maximized="1"
     borderlayer="true" />
  <metadata
     id="metadata3406">
    <rdf:RDF>
      <cc:Work
         rdf:about="">
        <dc:format>image/svg+xml</dc:format>
        <dc:type
           rdf:resource="http://purl.org/dc/dcmitype/StillImage" />
        <dc:title></dc:title>
      </cc:Work>
    </rdf:RDF>
  </metadata>
  <g
     inkscape:label="Capa 1"
     inkscape:groupmode="layer"
     id="layer1"
     transform="translate(-0.54246846,0.47526563)">
    <path
       style="fill:#0099b0"
       inkscape:connector-curvature="0"
       id="path6"
       d="m 198.36722,85.099618 -24.42185,-4.54139 c -0.59431,-0.11142 -1.24502,-0.67 -1.44553,-1.24343 l -7.48597,-17.464383 c -0.2793,-0.53926 -0.2258,-1.38604 0.11881,-1.88816 l 14.22922,-20.73858 c 0.3401,-0.49915 0.2733,-1.25828 -0.15601,-1.68761 l -17.7723,-17.7719 c -0.42941,-0.42933 -1.18702,-0.49915 -1.68614,-0.15598 l -21.10307,14.48135 c -0.49911,0.34317 -1.35483,0.40408 -1.89714,0.13667 l -16.92988,-6.93019 c -0.57502,-0.19015 -1.13503,-0.8334 -1.24793,-1.42912 L 113.86742,0.60771437 c -0.1099,-0.59571 -0.69671,-1.08298 -1.30283,-1.08298 l -25.136465,0 c -0.60462,0 -1.19143,0.48727 -1.30133,1.08298 L 81.426285,25.866895 c -0.1129,0.59572 -0.67151,1.23897 -1.24793,1.42912 l -16.93138,6.93019 c -0.54381,0.26741 -1.39943,0.2065 -1.89714,-0.13667 L 40.248268,19.608185 c -0.50062,-0.34317 -1.25973,-0.27335 -1.68764,0.15598 l -17.7738,17.7719 c -0.42781,0.42933 -0.49911,1.18846 -0.15591,1.68761 l 14.23052,20.73858 c 0.34171,0.50212 0.39521,1.3489 0.11741,1.88816 l -7.48747,17.464383 c -0.19901,0.57343 -0.84822,1.13201 -1.44543,1.24343 l -24.4204495,4.54139 c -0.59722,0.1129 -1.08303004,0.69822 -1.08303004,1.30433 l 0,25.134392 c 0,0.60611 0.48731004,1.19589 1.08303004,1.30433 l 23.8217295,4.43295 c 0.59572,0.10844 1.23303,0.67445 1.41423,1.25233 l 7.43697,18.57708 c 0.26591,0.5452 0.20351,1.39792 -0.1411,1.89707 l -13.53091,19.718 c -0.3417,0.49915 -0.2719,1.25976 0.15601,1.68909 l 17.7752,17.7719 c 0.42791,0.42636 1.18702,0.49618 1.68774,0.15599 l 19.369227,-13.29439 c 0.49921,-0.34168 1.33563,-0.36842 1.85704,-0.0639 l 8.5422,4.56071 c 0.54081,0.27632 1.17222,0.0431 1.40393,-0.51698 l 17.61329,-42.55718 c 0.23331,-0.56006 0,-1.27462 -0.51691,-1.59104 l -2.13785,-1.30879 c -0.39511,-0.24066 -0.93142,-0.65514 -1.35183,-1.03544 -7.71177,-4.93805 -12.82829,-13.57665 -12.82829,-23.414102 0,-15.3519 12.44648,-27.79653 27.79723,-27.79653 15.350755,0 27.795635,12.44463 27.795635,27.79653 0,9.837452 -5.11492,18.476052 -12.82819,23.414102 -0.41741,0.3803 -0.95522,0.79478 -1.34893,1.03544 l -2.13775,1.30879 c -0.51401,0.31642 -0.74872,1.03098 -0.51701,1.59104 l 17.61179,42.55867 c 0.23181,0.56006 0.86172,0.79181 1.40393,0.51697 l 8.5423,-4.5607 c 0.52291,-0.30454 1.35783,-0.27929 1.85694,0.0639 l 19.37083,13.29438 c 0.49912,0.3402 1.25983,0.27037 1.68614,-0.15598 l 17.7753,-17.7719 c 0.42931,-0.42933 0.49911,-1.18994 0.15601,-1.68909 l -13.53241,-19.718 c -0.34171,-0.49915 -0.40561,-1.35187 -0.1397,-1.89707 l 7.43697,-18.57708 c 0.1827,-0.57789 0.81561,-1.14389 1.41283,-1.25234 l 23.82163,-4.43294 c 0.59432,-0.10845 1.08303,-0.69822 1.08303,-1.30433 l 0,-25.134392 c 0,-0.6076 -0.48581,-1.19292 -1.08003,-1.30582" />
    <path
       style="fill:none"
       d="m 29.40892,169.54294 c -4.849775,-4.87234 -8.817774,-9.21192 -8.817774,-9.6435 0,-0.43156 3.159147,-5.35029 7.020326,-10.93048 l 7.020326,-10.14582 -2.077573,-5.21197 c -1.142665,-2.86658 -2.99657,-7.58637 -4.11979,-10.48842 -2.171029,-5.60928 -2.185771,-5.61892 -11.126284,-7.28088 -3.194608,-0.59385 -8.3214563,-1.56921 -11.392996,-2.16746 L 0.33053642,112.58667 0.61185411,99.29412 0.89317169,86.001582 13.460684,83.723235 c 6.912132,-1.25309 12.883496,-2.623271 13.269699,-3.044846 1.142606,-1.247261 8.002899,-17.668847 8.002899,-19.156659 0,-0.751802 -3.28039,-6.13237 -7.289754,-11.956817 l -7.289754,-10.589904 9.03646,-9.078523 c 4.970053,-4.993188 9.420441,-9.078523 9.889752,-9.078523 0.46931,0 5.52793,3.181981 11.241378,7.071068 5.713448,3.889087 10.904273,7.071068 11.535166,7.071068 0.630894,0 5.197781,-1.621265 10.148636,-3.602809 l 9.001557,-3.60281 2.181868,-11.802017 C 84.388618,9.4613538 85.603338,3.3419991 85.887967,2.3538971 86.355577,0.73057074 87.682455,0.58447281 99.649432,0.83866827 L 112.8934,1.1199886 115.23592,13.717144 c 1.28838,6.928436 2.90789,13.1162 3.59888,13.750588 1.56805,1.439576 16.26633,7.492367 18.19407,7.492367 0.78143,0 6.0194,-3.181981 11.63993,-7.071068 5.62053,-3.889087 10.59072,-7.071068 11.04488,-7.071068 0.98013,0 18.46126,17.413982 18.46126,18.390355 0,0.369994 -3.18198,5.276825 -7.07106,10.904069 -3.88909,5.627244 -7.05451,10.770352 -7.03426,11.42913 0.0202,0.658777 1.79383,5.288895 3.94129,10.28915 l 3.90447,9.091373 12.97876,2.579663 12.97878,2.579663 0.28132,13.252646 0.28131,13.252658 -5.58462,1.08774 c -3.07154,0.59825 -8.19838,1.57361 -11.39299,2.16746 -3.19461,0.59385 -6.52999,1.28289 -7.41196,1.53119 -1.61987,0.45605 -9.00302,17.59177 -9.00302,20.89528 0,0.96171 2.9547,6.01604 6.56599,11.23184 3.6113,5.2158 6.56599,9.88439 6.56599,10.37465 0,0.49026 -4.07664,4.94914 -9.0592,9.90861 l -9.0592,9.01723 -9.88116,-6.76722 c -5.43464,-3.72198 -10.46748,-6.76643 -11.18409,-6.76545 -0.71661,9.8e-4 -3.15718,0.94774 -5.42349,2.10392 -2.2663,1.15619 -4.48583,1.7244 -4.93227,1.2627 -0.44645,-0.4617 -4.68016,-10.15812 -9.40825,-21.54759 l -8.59653,-20.70813 2.70991,-1.95759 c 9.06135,-6.54581 14.32666,-15.63972 14.32666,-24.744104 0,-11.958532 -8.58146,-23.64819 -19.74211,-26.892677 -18.580145,-5.401394 -36.073215,7.298466 -36.254114,26.320256 -0.09029,9.493445 3.518375,17.083475 10.894301,22.913805 2.860491,2.2611 5.200894,4.39444 5.200894,4.74077 0,0.69384 -16.790029,41.77756 -17.36434,42.48901 -0.196711,0.24368 -2.405401,-0.55181 -4.908202,-1.76776 -2.502801,-1.21596 -5.106598,-2.21081 -5.786214,-2.21079 -0.679618,2e-5 -5.519334,2.95471 -10.754926,6.56599 -5.235591,3.61127 -9.790755,6.56595 -10.122586,6.56595 -0.331831,0 -4.571327,-3.98647 -9.421103,-8.85882 z"
       id="path3502"
       inkscape:connector-curvature="0"
       transform="translate(0.54246846,-0.47526563)" />
  </g>
</svg>
