<?xml version="1.0" encoding="UTF-8" standalone="no"?>
<!-- Generator: Adobe Illustrator 14.0.0, SVG Export Plug-In . SVG Version: 6.00 Build 43363)  -->

<svg
   xmlns:dc="http://purl.org/dc/elements/1.1/"
   xmlns:cc="http://creativecommons.org/ns#"
   xmlns:rdf="http://www.w3.org/1999/02/22-rdf-syntax-ns#"
   xmlns:svg="http://www.w3.org/2000/svg"
   xmlns="http://www.w3.org/2000/svg"
   xmlns:sodipodi="http://sodipodi.sourceforge.net/DTD/sodipodi-0.dtd"
   xmlns:inkscape="http://www.inkscape.org/namespaces/inkscape"
   version="1.0"
   id="Layer_1"
   x="0px"
   y="0px"
   width="88.0078125px"
   height="109.6088867px"
   viewBox="0 0 88.0078125 109.6088867"
   enable-background="new 0 0 88.0078125 109.6088867"
   xml:space="preserve"
   inkscape:version="0.91 r"
   sodipodi:docname="reprap-logo.svg"><metadata
     id="metadata58"><rdf:RDF><cc:Work
         rdf:about=""><dc:format>image/svg+xml</dc:format><dc:type
           rdf:resource="http://purl.org/dc/dcmitype/StillImage" /></cc:Work></rdf:RDF></metadata><defs
     id="defs56" /><sodipodi:namedview
     pagecolor="#ffffff"
     bordercolor="#666666"
     borderopacity="1"
     objecttolerance="10"
     gridtolerance="10"
     guidetolerance="10"
     inkscape:pageopacity="0"
     inkscape:pageshadow="2"
     inkscape:window-width="1920"
     inkscape:window-height="1018"
     id="namedview54"
     showgrid="false"
     inkscape:zoom="6.089915"
     inkscape:cx="30.734693"
     inkscape:cy="50.193551"
     inkscape:window-x="0"
     inkscape:window-y="25"
     inkscape:window-maximized="1"
     inkscape:current-layer="layer1" /><g
     inkscape:groupmode="layer"
     id="layer1"
     inkscape:label="Layer 1"
     style="display:inline"><rect
       style="display:inline;fill:#ffffff"
       id="rect3426"
       width="84.073418"
       height="91.462692"
       x="2.1346769"
       y="13.876844" /></g><g
     inkscape:groupmode="layer"
     id="layer2"
     inkscape:label="Layer 2"
     style="display:inline"><g
       id="g38"><path
         d="m 37.376953,92.374512 c -0.731445,0 -1.292969,0.268554 -1.683594,0.805664 -0.391601,0.538086 -0.586914,1.3125 -0.586914,2.323242 0,1.011719 0.195313,1.786133 0.586914,2.324219 0.390625,0.537109 0.952149,0.805664 1.683594,0.805664 0.731445,0 1.290039,-0.266602 1.674805,-0.801758 0.384765,-0.53418 0.577148,-1.30957 0.577148,-2.328125 0,-1.017578 -0.192383,-1.793945 -0.577148,-2.328125 -0.384766,-0.53418 -0.94336,-0.800781 -1.674805,-0.800781 z"
         id="path40"
         inkscape:connector-curvature="0"
         style="fill:#029346" /><path
         d="m 51.050781,89.253418 -1.545898,0 0,3.655273 1.545898,0 c 0.769532,0 1.321289,-0.143554 1.655274,-0.429687 0.333984,-0.286133 0.500976,-0.756836 0.500976,-1.41211 0,-0.648437 -0.166992,-1.113281 -0.500976,-1.393554 -0.333985,-0.279297 -0.885743,-0.419922 -1.655274,-0.419922 z"
         id="path42"
         inkscape:connector-curvature="0"
         style="fill:#029346" /><path
         d="m 8.7617188,89.253418 -1.5458985,0 0,3.655273 1.5458984,0 c 0.7695313,0 1.3212893,-0.143554 1.6552733,-0.429687 0.333984,-0.286133 0.500977,-0.756836 0.500977,-1.41211 0,-0.648437 -0.166992,-1.113281 -0.500977,-1.393554 C 10.083008,89.394043 9.53125,89.253418 8.7617188,89.253418 Z"
         id="path44"
         inkscape:connector-curvature="0"
         style="fill:#029346" /><path
         d="m 23.541992,92.164551 c -0.662109,0 -1.199219,0.185547 -1.613281,0.557617 -0.413086,0.37207 -0.670899,0.908203 -0.772461,1.608398 l 4.436523,0 c 0,-0.649414 -0.188476,-1.172851 -0.567382,-1.570312 -0.378907,-0.397461 -0.873047,-0.595703 -1.483399,-0.595703 z"
         id="path46"
         inkscape:connector-curvature="0"
         style="fill:#029346" /><path
         d="m 63.908203,96.391113 c -0.359375,0.242188 -0.539062,0.597657 -0.539062,1.06836 0,0.432617 0.144531,0.771484 0.433593,1.016601 0.290039,0.245118 0.692383,0.367188 1.207032,0.367188 0.642578,0 1.183593,-0.230469 1.62207,-0.691406 0.439453,-0.460938 0.65918,-1.039063 0.65918,-1.732422 l 0,-0.390625 -1.775391,0 c -0.711914,0 -1.248047,0.121093 -1.607422,0.362304 z"
         id="path48"
         inkscape:connector-curvature="0"
         style="fill:#029346" /><path
         d="M 80.920898,0 7.0864258,0 C 3.1889648,0 0,3.1889648 0,7.0864258 L 0,102.52197 c 0,3.89746 3.1889648,7.08692 7.0864258,7.08692 l 73.8344732,0 c 3.89746,0 7.086914,-3.18946 7.086914,-7.08692 l 0,-95.4355442 C 88.007812,3.1889648 84.818359,0 80.920898,0 Z M 12.492188,100.8374 10.755859,97.297363 C 10.40625,96.585449 10.050781,96.099121 9.6914063,95.837402 9.3320313,95.57666 8.8535157,95.446777 8.2558594,95.446777 l -1.0400391,0 0,5.390623 -3.6738281,0 0,-14.246091 5.6103516,0 c 1.8769532,0 3.2529302,0.315429 4.1269532,0.945312 0.875,0.629883 1.3125,1.625 1.3125,2.986328 0,0.941406 -0.227539,1.714844 -0.682617,2.31836 -0.455078,0.604492 -1.139649,1.049804 -2.055664,1.335937 0.501953,0.114258 0.952148,0.374024 1.349609,0.77832 0.397461,0.403321 0.799805,1.015625 1.207031,1.835938 l 1.994141,4.045896 -3.912109,0 z m 16.612304,-4.398435 -7.986328,0 c 0.08301,0.801758 0.37207,1.402344 0.868164,1.803711 0.496094,0.40039 1.189453,0.600586 2.080078,0.600586 0.71875,0 1.455078,-0.106446 2.208985,-0.319336 0.753906,-0.212891 1.52832,-0.536133 2.323242,-0.96875 l 0,2.633784 c -0.807617,0.30567 -1.615234,0.53614 -2.423828,0.69141 -0.807617,0.15625 -1.615235,0.23438 -2.422852,0.23438 -1.93457,0 -3.4375,-0.49219 -4.508789,-1.474613 -1.072266,-0.982422 -1.607422,-2.361328 -1.607422,-4.136719 0,-1.742188 0.526367,-3.113281 1.579102,-4.112305 1.052734,-0.998047 2.500976,-1.498047 4.345703,-1.498047 1.679687,0 3.023437,0.50586 4.03125,1.517578 1.008789,1.010743 1.512695,2.363282 1.512695,4.054688 l 0,0.973633 z m 12.786133,3.105469 c -0.84668,1.046876 -1.927734,1.570316 -3.244141,1.570316 -0.74414,0 -1.40332,-0.14844 -1.975586,-0.44434 -0.572265,-0.2959 -1.09375,-0.754883 -1.564453,-1.378906 l 0,5.611326 -3.416015,0 0,-14.751951 3.416015,0 0,1.564453 c 0.470703,-0.623047 0.992188,-1.083008 1.564453,-1.378906 0.572266,-0.294922 1.231446,-0.44336 1.975586,-0.44336 1.316407,0 2.397461,0.523438 3.244141,1.569336 0.845703,1.046875 1.268555,2.393555 1.268555,4.041016 0,1.648437 -0.422852,2.995117 -1.268555,4.041016 z M 19.756836,52.182129 c 0,-6.696289 2.714844,-12.756836 7.102539,-17.144531 L 44.003906,17.89209 61.149414,35.038086 c 4.387695,4.387207 7.101563,10.44873 7.101563,17.144043 0,13.391601 -10.856446,24.24707 -24.247071,24.24707 -13.390625,0 -24.24707,-10.855469 -24.24707,-24.24707 z M 54.78125,100.8374 53.044922,97.297363 c -0.34961,-0.711914 -0.705078,-1.198242 -1.064453,-1.459961 -0.359375,-0.260742 -0.837891,-0.390625 -1.435547,-0.390625 l -1.040039,0 0,5.390623 -3.673828,0 0,-14.246091 5.610351,0 c 1.876953,0 3.25293,0.315429 4.126953,0.945312 0.875,0.629883 1.3125,1.625 1.3125,2.986328 0,0.941406 -0.227539,1.714844 -0.682617,2.31836 -0.455078,0.604492 -1.139648,1.049804 -2.055664,1.335937 0.501953,0.114258 0.952148,0.374024 1.349609,0.77832 0.397461,0.403321 0.799805,1.015625 1.207032,1.835938 l 1.99414,4.045896 -3.912109,0 z m 15.954102,0 -3.444336,0 0,-1.583982 c -0.458008,0.649414 -0.973633,1.121092 -1.545899,1.416992 -0.572265,0.2959 -1.269531,0.44434 -2.089843,0.44434 -1.106446,0 -2.00586,-0.32325 -2.695313,-0.96875 -0.69043,-0.645512 -1.035156,-1.483402 -1.035156,-2.514652 0,-1.25293 0.430664,-2.171875 1.292969,-2.757813 0.861328,-0.584961 2.214843,-0.876953 4.05957,-0.876953 l 2.013672,0 0,-0.267578 c 0,-0.541016 -0.213867,-0.936523 -0.639649,-1.1875 -0.425781,-0.251953 -1.09082,-0.376953 -1.99414,-0.376953 -0.731446,0 -1.41211,0.07324 -2.041992,0.21875 -0.629883,0.146484 -1.214844,0.366211 -1.75586,0.65918 l 0,-2.605469 c 0.731445,-0.177735 1.46582,-0.313477 2.204102,-0.405274 0.738281,-0.09277 1.475586,-0.138671 2.213867,-0.138671 1.927734,0 3.319336,0.379882 4.174805,1.140625 0.855468,0.759765 1.283203,1.996093 1.283203,3.707031 l 0,6.096677 z m 13.377929,-1.292966 c -0.846679,1.046876 -1.927734,1.570316 -3.24414,1.570316 -0.744141,0 -1.403321,-0.14844 -1.975586,-0.44434 -0.572266,-0.2959 -1.09375,-0.754883 -1.564453,-1.378906 l 0,5.611326 -3.416016,0 0,-14.751951 3.416016,0 0,1.564453 c 0.470703,-0.623047 0.992187,-1.083008 1.564453,-1.378906 0.572265,-0.294922 1.231445,-0.44336 1.975586,-0.44336 1.316406,0 2.397461,0.523438 3.24414,1.569336 0.845703,1.046875 1.268555,2.393555 1.268555,4.041016 0,1.648437 -0.422852,2.995117 -1.268555,4.041016 z"
         id="path50"
         inkscape:connector-curvature="0"
         style="fill:#029346" /><path
         d="m 79.599609,92.374512 c -0.731445,0 -1.292968,0.268554 -1.683593,0.805664 -0.391602,0.538086 -0.586914,1.3125 -0.586914,2.323242 0,1.011719 0.195312,1.786133 0.586914,2.324219 0.390625,0.537109 0.952148,0.805664 1.683593,0.805664 0.731446,0 1.29004,-0.266602 1.674805,-0.801758 0.384766,-0.53418 0.577148,-1.30957 0.577148,-2.328125 0,-1.017578 -0.192382,-1.793945 -0.577148,-2.328125 -0.384765,-0.53418 -0.943359,-0.800781 -1.674805,-0.800781 z"
         id="path52"
         inkscape:connector-curvature="0"
         style="fill:#029346" /></g></g></svg>