<?xml version="1.0" standalone="no"?>
<!DOCTYPE svg PUBLIC "-//W3C//DTD SVG 20010904//EN"
 "http://www.w3.org/TR/2001/REC-SVG-20010904/DTD/svg10.dtd">
<svg version="1.0" xmlns="http://www.w3.org/2000/svg"
 width="228.000000pt" height="243.000000pt" viewBox="0 0 224.000000 243.000000"
 preserveAspectRatio="xMidYMid meet">
<metadata>
Print Open Hard Logo SVG
</metadata>
<g transform="translate(0.000000,243.000000) scale(0.100000,-0.100000)"
fill="#009999" stroke="none">
<path d="M314 2380 c-111 -16 -228 -96 -284 -194 l-30 -51 0 -918 c0 -1035 -7
-945 81 -1041 54 -59 130 -104 206 -122 l53 -12 0 901 0 902 24 50 c28 60 91
120 143 135 26 8 153 10 408 8 l370 -3 84 -33 c197 -75 360 -233 436 -420 66
-165 73 -373 18 -535 -66 -191 -191 -337 -364 -427 -128 -66 -200 -80 -426
-80 l-193 0 0 -250 0 -250 505 0 c335 0 522 4 557 11 80 17 157 61 214 120 67
72 102 149 115 252 6 52 9 374 7 853 l-3 769 -24 60 c-63 157 -179 253 -334
276 -74 10 -1489 10 -1563 -1z"/>
<path d="M840 1289 l0 -281 158 4 c182 4 223 17 291 94 99 113 94 270 -12 379
-70 72 -117 85 -299 85 l-138 0 0 -281z"/>
</g>
</svg>
